<?xml version="1.0" encoding="UTF-8" standalone="no"?>
<svg
   width="456"
   height="456"
   viewBox="0 0 456 456"
   version="1.1"
   xml:space="preserve"
   style="fill-rule:evenodd;clip-rule:evenodd;stroke-linejoin:round;stroke-miterlimit:2;"
   id="svg245"
   sodipodi:docname="appiconfg2.svg"
   inkscape:version="1.2.2 (b0a84865, 2022-12-01)"
   xmlns:inkscape="http://www.inkscape.org/namespaces/inkscape"
   xmlns:sodipodi="http://sodipodi.sourceforge.net/DTD/sodipodi-0.dtd"
   xmlns="http://www.w3.org/2000/svg"
   xmlns:svg="http://www.w3.org/2000/svg"><defs
   id="defs249" /><sodipodi:namedview
   id="namedview247"
   pagecolor="#ffffff"
   bordercolor="#000000"
   borderopacity="0.25"
   inkscape:showpageshadow="2"
   inkscape:pageopacity="0.0"
   inkscape:pagecheckerboard="0"
   inkscape:deskcolor="#d1d1d1"
   showgrid="false"
   inkscape:zoom="1.35994"
   inkscape:cx="198.17051"
   inkscape:cy="295.96894"
   inkscape:window-width="1920"
   inkscape:window-height="1027"
   inkscape:window-x="0"
   inkscape:window-y="25"
   inkscape:window-maximized="0"
   inkscape:current-layer="svg245" />
    
    
    
    
<g
   inkscape:label="Vrstva 1"
   id="layer1"
   transform="matrix(1.1158363,0,0,1.1158363,44.385453,242.95194)"><path
     id="path24439-5-1-1"
     style="fill:#f8ece5;fill-opacity:1;stroke:none;stroke-width:11.8601;stroke-linecap:round;stroke-linejoin:round;stroke-opacity:1;paint-order:stroke fill markers"
     d="m 174.98186,-137.9549 26.26559,26.2656 a 105,105 0 0 1 61.57916,61.5792 l 26.2651,26.265 A 125,125 0 0 0 174.98186,-137.9549 Z m -20.92274,0.033 A 125,125 0 0 0 40.014893,-23.8777 l 26.232506,-26.2325 a 105,105 0 0 1 61.579201,-61.5792 z m 135.03259,134.9675 -26.2651,26.265 a 105,105 0 0 1 -61.57916,61.57922 l -26.26559,26.26555 A 125,125 0 0 0 289.09171,-2.9545 Z M 40.014893,-2.9214 A 125,125 0 0 0 154.05962,111.12328 L 127.8266,84.89026 A 105,105 0 0 1 66.247399,23.3111 Z" /><path
     style="fill:#e4935d;fill-opacity:1;stroke-width:1.53285"
     d="m 139.73619,58.78976 c -1.47535,-1.6257 -3.61546,-4.0866 -4.75576,-5.4687 -1.25391,-1.51965 -3.07149,-2.10015 -4.59858,-1.46885 -8.07319,3.33765 -10.9975,1.86015 -12.32096,-6.2252 -0.78679,-4.80681 -1.76294,-5.98131 -6.18409,-7.44071 -7.65053,-2.5253 -9.34507,-8.647 -4.77704,-17.2578 4.65637,-8.7774 12.86152,-14.221 23.2022,-15.393 8.72152,-0.9886 17.87074,-4.7875 21.20471,-8.8047 6.42243,-7.7386 -9.4792,-9.8724 -22.27216,-2.9887 -10.77495,5.798 -16.47017,6.7761 -25.62538,4.4012 -12.470311,-3.2347 -16.865981,-11.865 -10.296821,-20.2163 2.99728,-3.8105 2.99661,-3.8463 -0.15227,-8.1055 -3.89247,-5.2648 -2.17244,-9.6476 4.73057,-12.054 3.988391,-1.3903 4.561331,-2.3035 4.385131,-6.9891 -0.3505,-9.3213 6.06414,-13.1135 17.13798,-10.1315 8.37321,2.2546 14.95221,8.2958 19.50419,17.9098 3.62451,7.6551 11.05311,15.8162 14.39658,15.8162 2.56678,0 3.30743,-4.5128 1.46905,-8.9511 -0.97904,-2.3636 -5.07906,-7.4977 -9.1112,-11.4092 -10.25205,-9.9453 -13.17323,-20.3258 -8.71958,-30.9849 2.56333,-6.1348 8.17039,-8.2584 14.35968,-5.4383 3.65869,1.667 4.38737,1.4548 7.22561,-2.1048 4.11104,-5.1557 9.66175,-5.1234 13.81114,0.081 2.75328,3.4529 3.69234,3.7865 6.4714,2.2992 7.59807,-4.0663 14.57461,0.1304 16.40111,9.8665 1.58696,8.4593 -1.71874,17.1652 -9.78928,25.781 -4.03491,4.3075 -8.17399,9.4378 -9.19798,11.4006 -1.95186,3.7413 -1.25369,7.9277 1.32219,7.9277 2.88577,0 9.29131,-7.8043 13.21778,-16.1041 4.24556,-8.9744 8.80749,-13.0294 18.02165,-16.0188 10.64467,-3.4536 17.92959,0.8455 17.92959,10.5809 0,5.2401 0.46118,5.9225 4.55772,6.7418 5.94913,1.1898 7.50659,6.7033 3.70938,13.1315 -2.68932,4.5527 -2.67607,4.728 0.624,8.2407 4.30831,4.586 4.28229,8.9256 -0.0769,12.8964 -9.34163,8.5085 -21.15294,9.5316 -32.59897,2.8239 -9.11206,-5.3401 -24.02274,-6.545 -24.94107,-2.0155 -0.7145,3.5245 12.476,11.9101 18.75237,11.9216 8.59582,0.018 16.3214,3.2005 22.32353,9.2026 9.9852,9.9852 9.77959,21.5449 -0.43044,24.1906 -3.14005,0.8136 -5.10654,2.3645 -5.38931,4.25 -1.15562,7.70601 -2.08507,9.73201 -4.8701,10.61596 -1.65236,0.5243 -4.47777,0.1651 -6.27877,-0.79905 -2.86249,-1.5319 -3.90863,-1.0603 -8.31218,3.74725 -5.89114,6.4317 -7.77517,6.6961 -14.61075,2.0508 -9.62188,-6.53875 -12.13005,-15.29626 -9.98769,-34.87246 0.856,-7.8216 0.58856,-10.6226 -1.24403,-13.0292 -3.68209,-4.8356 -6.44285,-0.7746 -6.04357,8.8898 0.1815,4.3844 0.49188,11.8096 0.69076,16.5005 0.427,10.07831 -3.0199,17.18906 -10.90999,22.50616 -6.2669,4.2233 -8.48871,4.3159 -11.95326,0.4982 z"
     id="path860-0" /></g></svg>
